<svg width="200" height="200" viewBox="0 0 200 200" fill="none" xmlns="http://www.w3.org/2000/svg">
<path d="M165.076 41.7812H156.119V21.5008C156.119 19.684 154.646 18.2113 152.829 18.2113H122.126C120.309 18.2113 118.837 19.6844 118.837 21.5008V41.7809H111.477V21.5008C111.477 19.684 110.005 18.2113 108.188 18.2113H96.1262V10.7129C96.1254 4.80586 91.3199 0 85.4129 0H55.6164C49.709 0 44.9035 4.80586 44.9035 10.7129V18.2113H32.8418C31.0246 18.2113 29.5523 19.6844 29.5523 21.5008V47.752H26.9383C25.1211 47.752 23.6488 49.225 23.6488 51.0414V68.8055C23.6488 70.6223 25.1211 72.0949 26.9383 72.0949H29.5523V127.904H26.9398C25.1226 127.904 23.6504 129.377 23.6504 131.193V148.956C23.6504 150.773 25.1226 152.246 26.9398 152.246H29.5523V178.498C29.5523 180.315 31.0246 181.788 32.8418 181.788H63.5449C65.3621 181.788 66.8344 180.314 66.8344 178.498V152.246H74.1941V178.498C74.1941 180.315 75.6664 181.788 77.4836 181.788H89.5445V189.287C89.5445 195.195 94.35 200 100.257 200H130.054C135.961 200 140.767 195.194 140.767 189.287V181.788H152.829C154.646 181.788 156.119 180.315 156.119 178.498V152.246H158.732C160.549 152.246 162.021 150.773 162.021 148.957V131.194C162.021 129.377 160.549 127.904 158.732 127.904H156.119V103.059H165.076C171.293 103.059 176.352 98.0004 176.352 91.7832V53.0563C176.352 46.8391 171.293 41.7812 165.076 41.7812ZM125.416 24.7906H149.539V41.7812H125.416V24.7906ZM104.898 24.7906V41.7812H96.2176C91.9168 41.7812 88.1722 44.2023 86.2711 47.752H80.7738V24.7906H104.898ZM96.2176 103.059H104.898V127.904H80.7738V72.0949H84.9422V91.7836C84.9422 98.0012 90.0004 103.059 96.2176 103.059ZM55.6164 6.5793H85.4129C87.6918 6.5793 89.5465 8.43359 89.5465 10.7129V18.2113H77.4844C75.6672 18.2113 74.1949 19.6844 74.1949 21.5008V47.752H66.8351V21.5008C66.8351 19.684 65.3629 18.2113 63.5457 18.2113H51.484V10.7129H51.4836C51.4828 8.43359 53.3371 6.5793 55.6164 6.5793ZM36.1312 24.7906H60.2551V47.752H36.1312V24.7906ZM30.2281 54.3312H84.9422V65.516H30.2281V54.3312ZM74.1949 72.0949V127.904H66.8351V72.0949H74.1949ZM60.2551 72.0949V127.904H36.1312V72.0949H60.2551ZM60.2551 175.209H36.1312V152.246H60.2551V175.209ZM80.7738 175.209V152.246H104.898V175.209H80.7738ZM130.054 193.421H100.258C97.9789 193.421 96.1242 191.566 96.1242 189.287V181.788H108.187C110.004 181.788 111.477 180.315 111.477 178.498V152.246H118.836V178.498C118.836 180.315 120.308 181.788 122.125 181.788H134.187V189.287H134.187C134.187 191.567 132.333 193.421 130.054 193.421ZM149.539 175.209H125.416V152.246H149.539V175.209ZM155.442 145.667H30.2293V134.483H155.442V145.667H155.442ZM111.477 127.904V103.059H118.836V127.904H111.477ZM125.416 127.904V103.059H149.539V127.904H125.416ZM169.772 91.7836C169.772 94.373 167.666 96.4797 165.076 96.4797H96.2176C93.6281 96.4797 91.5215 94.373 91.5215 91.7836V53.0566C91.5215 50.4672 93.6281 48.3605 96.2176 48.3605H165.076C167.666 48.3605 169.772 50.4672 169.772 53.0566V91.7836Z" fill="#CACACA"/>
<path d="M162.097 52.7461H99.1973C97.3801 52.7461 95.9078 54.2191 95.9078 56.0355V88.8035C95.9078 90.6203 97.3801 92.093 99.1973 92.093H162.097C163.914 92.093 165.386 90.6199 165.386 88.8035V56.0355C165.386 54.2188 163.914 52.7461 162.097 52.7461ZM158.807 85.5141H102.487V59.3254H158.807V85.5141Z" fill="#CACACA"/>
<path d="M151.199 74.2024H140.516C138.699 74.2024 137.227 75.6754 137.227 77.4918C137.227 79.3083 138.699 80.7813 140.516 80.7813H151.199C153.016 80.7813 154.488 79.3083 154.488 77.4918C154.488 75.6754 153.016 74.2024 151.199 74.2024Z" fill="#CACACA"/>
</svg>
