<svg width="200" height="200" viewBox="0 0 200 200" fill="none" xmlns="http://www.w3.org/2000/svg">
<path d="M151.481 0H48.5189V16.4658H13.2993V43.5138C13.2993 62.9622 29.0705 78.7334 48.5189 78.7334H53.095C57.5077 88.4576 64.8213 96.5475 73.9326 101.941C83.4934 107.579 89.1318 118.121 89.1318 129.234V150.603H76.5067C72.6252 150.603 69.4382 153.749 69.4382 157.671V166.946H58.6517V200H141.307V166.946H130.521V157.671C130.521 153.79 127.375 150.603 123.453 150.603H110.827V129.234C110.827 118.121 116.466 107.579 126.027 101.941C135.138 96.5884 142.492 88.4576 146.864 78.7334H151.481C170.93 78.7334 186.701 62.9622 186.701 43.5138V16.5066H151.481V0ZM48.5189 60.9193C38.9173 60.9193 31.1134 53.1154 31.1134 43.5138V34.3207H48.5189V57.5281C48.5189 58.6721 48.5598 59.7753 48.6415 60.8784H48.5189V60.9193ZM114.3 168.539V186.231H85.6997V168.539H114.3ZM96.4862 43.0644C97.3443 44.0449 98.9377 45.0664 101.307 46.0878C106.742 48.3759 110.746 50.6639 113.32 52.952C115.894 55.24 117.16 58.5087 117.16 62.7579C117.16 66.8029 115.853 70.0715 113.32 72.523C111.113 74.6067 108.294 75.9551 104.821 76.6088V82.4923C104.821 83.2686 104.168 83.8815 103.391 83.8815H98.2431C97.4668 83.8815 96.8131 83.2686 96.8131 82.4923V76.7722C92.4822 76.2819 88.8458 74.7293 85.9449 72.1144C83.2482 69.7038 81.8182 66.2717 81.6139 61.859C81.5731 60.9602 82.3494 60.1839 83.2482 60.1839L91.665 60.0204H91.7058C92.523 60.0204 93.2585 60.6333 93.3402 61.4505C93.5445 63.5751 94.1573 65.1685 95.1788 66.19C96.4454 67.4566 98.0797 68.0695 100.123 68.0695C101.798 68.0695 103.105 67.5792 103.963 66.5986C104.821 65.618 105.271 64.3514 105.271 62.7579C105.271 60.9193 104.821 59.4893 103.922 58.5087C103.024 57.4872 101.43 56.5066 99.1829 55.526C93.6262 53.3606 89.6221 51.1134 87.0889 48.907C84.5557 46.6599 83.2891 43.3912 83.2891 39.0194C83.2891 35.097 84.6374 31.8693 87.2932 29.2952C89.7447 26.9663 92.8907 25.5771 96.8131 25.0051V18.999C96.8131 18.2227 97.4668 17.6098 98.2431 17.6098H103.391C104.168 17.6098 104.821 18.2227 104.821 18.999V25.2911C108.498 26.0266 111.44 27.6609 113.687 30.2349C115.853 32.6864 117.038 35.7508 117.242 39.428C117.283 40.3269 116.507 41.1032 115.608 41.1032L107.15 41.2257H107.109C106.292 41.2257 105.557 40.6129 105.475 39.7957C105.312 37.9571 104.862 36.5679 104.045 35.5873C103.064 34.3616 101.757 33.7079 100.082 33.7079C98.4066 33.7079 97.1808 34.239 96.3637 35.2605C95.5874 36.2819 95.1788 37.5894 95.1788 39.1828C95.1788 40.7763 95.6282 42.0838 96.4862 43.0644ZM168.887 34.3207V43.5138C168.887 53.1154 161.083 60.9193 151.481 60.9193H151.359C151.44 59.8161 151.481 58.6721 151.481 57.5689V34.3207H168.887Z" fill="#CACACA"/>
</svg>
