<svg width="160" height="65" viewBox="0 0 160 65" fill="none" xmlns="http://www.w3.org/2000/svg">
<g clip-path="url(#clip0_2_299)">
<path d="M19.5581 26.699H24.178C24.6083 26.699 24.9571 26.3503 24.9571 25.9199C24.9571 25.4896 24.6083 25.1409 24.178 25.1409H19.5581C19.1278 25.1409 18.7791 25.4896 18.7791 25.9199C18.7791 26.3503 19.1278 26.699 19.5581 26.699Z" fill="white"/>
<path d="M59.567 25.799V26.3007H58.1436V23.6923H56.5855V26.3009H51.7973L50.2576 23.7601H45.3875V22.9336H18.9799C18.2023 22.9336 17.4543 23.3009 16.9791 23.9161L15.993 25.1922L1.33376 25.1913C0.973545 25.1916 0.635994 25.3333 0.383434 25.5901C0.130873 25.8469 -0.00525182 26.1867 0.000414153 26.5469L0.0829957 31.8303C0.0895115 32.2484 0.285696 32.6313 0.621404 32.8808C0.855409 33.0547 1.13191 33.1451 1.41436 33.1451C1.53703 33.1451 1.66068 33.1279 1.7825 33.0934L13.9917 29.623C14.1954 29.6124 16.1772 29.5097 17.1539 29.4954C17.3619 30.2333 17.3193 31.0318 17.0244 31.7457L15.4628 35.5262L18.7808 36.9233L21.6018 31.6527H23.0232C24.4406 31.6527 25.6263 30.6429 25.8991 29.305L26.7128 29.2788C26.6628 33.7385 28.1985 38.0368 31.0879 41.4714L31.5888 42.0667L35.797 38.5299L35.2956 37.9335C33.231 35.4781 32.1314 32.2984 32.2167 29.1013L45.3875 28.6763V27.8592H59.5672V28.3615H65.0001V25.7993H59.567V25.799ZM1.63618 31.5148L1.56167 26.7493L13.153 26.7406V28.2412L1.63618 31.5148ZM14.7111 28.0269V26.7503H16.7581L18.212 24.8687C18.3944 24.6325 18.6814 24.4916 18.9799 24.4916H43.8292V24.9668H38.5124C37.02 24.9668 35.7928 26.0184 35.5279 27.4352C35.5279 27.4353 15.5284 27.9879 14.7111 28.0269ZM18.0768 34.9362L17.4937 34.6906L18.4644 32.3404C18.8395 31.4325 18.9325 30.4309 18.7477 29.4761L21.0243 29.4292L18.0768 34.9362ZM23.0229 30.0944H22.4354L22.8045 29.4046L24.2406 29.3582C24.0097 29.7955 23.5509 30.0944 23.0229 30.0944ZM33.6176 38.3263L33.2805 38.6099C32.7844 39.0272 32.2884 39.4444 31.7922 39.8612C29.4462 36.804 28.2131 33.0802 28.2712 29.2283L30.656 29.1514C30.5897 32.4366 31.6409 35.699 33.6176 38.3263ZM37.1655 27.3825C37.3994 26.8734 37.9121 26.5251 38.5124 26.5251H43.8292V27.1675L37.1655 27.3825ZM45.3874 25.3183H49.3798L49.9753 26.3009H45.3874V25.3183Z" fill="white"/>
</g>
<path d="M82.168 38.912L80.08 41H74.152L72.088 38.912V26.504L74.152 24.416H80.08L82.168 26.504V28.232L79.792 30.632V26.504H74.464V38.912H79.792V37.16L82.168 34.784V38.912ZM95.5039 26.504H87.3439V30.632H92.8399L94.8799 32.696V38.912L92.8399 41H87.0319L84.9679 38.912V37.256L87.3439 34.976V38.912H92.5039V32.696H87.0319L84.9679 30.632V26.504L87.0319 24.416H93.4159L95.5039 26.504ZM109.416 32.696L107.328 34.784H101.424V41H99.0479V28.544L101.136 26.504H98.7599V24.416H107.328L109.416 26.504V32.696ZM107.04 32.696V26.504H101.424V34.496L103.176 32.696H107.04ZM123.214 41H113.134V24.416H115.51V38.912H120.838V36.848L123.214 34.496V41ZM136.506 41H134.154V34.784H128.514V41H126.138V26.504L128.226 24.416H136.506V41ZM135.642 26.504H128.514V34.496L130.314 32.696H134.154V27.992L135.642 26.504ZM150.883 32.696L148.795 34.784H146.875V41H144.499V34.784H142.579L140.515 32.696V24.416H142.891V32.696H148.507V24.416H150.883V32.696Z" fill="white"/>
<defs>
<clipPath id="clip0_2_299">
<rect width="65" height="65" fill="white"/>
</clipPath>
</defs>
</svg>
