<svg width="200" height="200" viewBox="0 0 200 200" fill="none" xmlns="http://www.w3.org/2000/svg">
<path d="M180.859 7.92969L123.281 29.5508L143.945 42.5781C107.031 89.0625 53.6328 117.695 8.51562 128.594L21.2969 151.875C71.9922 135.352 125.664 105.547 160.234 52.8906L175.977 62.8125L180.859 7.92969ZM183.867 53.5156L181.992 74.9219L161.953 62.2656C161.25 63.3203 160.508 64.3359 159.766 65.3906V190.234H190.234V53.5156H183.867ZM125.039 103.516C120.078 107.812 114.961 111.875 109.766 115.703V190.234H140.234V103.516H125.039ZM76.7188 136.328C71.0937 139.297 65.4688 142.031 59.7656 144.609V190.234H90.2344V136.328H76.7188ZM9.76563 153.516V190.234H40.2344V153.516H38.0156C32.2266 155.664 26.4414 157.656 20.6914 159.492L17.9336 160.352L14.1836 153.516H9.76563Z" fill="#CACACA"/>
</svg>
